<?xml version="1.0" encoding="utf-8"?>
<svg viewBox="114.778 155.895 306.781 81.357" xmlns="http://www.w3.org/2000/svg">
  <g transform="matrix(1, 0, 0, 1, -71.98020935058592, -53.306358337402344)">
    <g>
      <path d="M 283.755 271.257 C 282.483 271.257 281.239 271.161 280.024 270.967 C 278.807 270.775 277.661 270.484 276.583 270.097 C 275.505 269.682 274.537 269.185 273.681 268.604 C 273.267 268.301 272.976 267.956 272.811 267.568 C 272.672 267.181 272.63 266.808 272.686 266.449 C 272.769 266.062 272.935 265.73 273.184 265.454 C 273.432 265.178 273.736 265.012 274.096 264.956 C 274.454 264.873 274.855 264.984 275.298 265.288 C 276.542 266.09 277.854 266.684 279.236 267.07 C 280.618 267.43 282.123 267.609 283.755 267.609 C 286.103 267.609 287.831 267.195 288.937 266.366 C 290.069 265.51 290.636 264.404 290.636 263.049 C 290.636 261.945 290.235 261.074 289.434 260.438 C 288.632 259.774 287.292 259.25 285.413 258.862 L 280.977 257.95 C 278.351 257.398 276.389 256.486 275.091 255.214 C 273.819 253.944 273.184 252.23 273.184 250.074 C 273.184 248.775 273.446 247.587 273.971 246.509 C 274.524 245.431 275.283 244.506 276.251 243.731 C 277.218 242.93 278.379 242.322 279.734 241.907 C 281.087 241.493 282.566 241.286 284.169 241.286 C 285.882 241.286 287.486 241.507 288.978 241.949 C 290.497 242.391 291.852 243.068 293.041 243.98 C 293.4 244.229 293.634 244.547 293.745 244.934 C 293.883 245.293 293.911 245.653 293.828 246.011 C 293.773 246.371 293.621 246.675 293.372 246.923 C 293.123 247.172 292.805 247.325 292.419 247.379 C 292.032 247.407 291.603 247.27 291.134 246.965 C 290.056 246.247 288.95 245.736 287.817 245.431 C 286.711 245.099 285.481 244.934 284.128 244.934 C 282.773 244.934 281.584 245.141 280.563 245.555 C 279.568 245.97 278.794 246.55 278.241 247.297 C 277.716 248.043 277.454 248.928 277.454 249.95 C 277.454 251.11 277.827 252.037 278.573 252.727 C 279.319 253.418 280.563 253.944 282.304 254.302 L 286.698 255.214 C 289.461 255.795 291.52 256.693 292.875 257.909 C 294.229 259.126 294.906 260.742 294.906 262.759 C 294.906 264.059 294.644 265.233 294.118 266.283 C 293.593 267.306 292.847 268.19 291.88 268.936 C 290.912 269.682 289.738 270.262 288.356 270.677 C 287.002 271.065 285.468 271.257 283.755 271.257 Z M 304.195 270.884 C 303.449 270.884 302.869 270.692 302.454 270.304 C 302.066 269.889 301.874 269.309 301.874 268.563 L 301.874 243.98 C 301.874 243.234 302.066 242.668 302.454 242.28 C 302.869 241.866 303.449 241.659 304.195 241.659 L 319.326 241.659 C 319.907 241.659 320.348 241.811 320.653 242.115 C 320.956 242.391 321.109 242.806 321.109 243.358 C 321.109 243.939 320.956 244.381 320.653 244.685 C 320.348 244.99 319.907 245.141 319.326 245.141 L 306.019 245.141 L 306.019 254.302 L 318.414 254.302 C 319.022 254.302 319.464 254.455 319.741 254.758 C 320.044 255.063 320.197 255.491 320.197 256.043 C 320.197 256.624 320.044 257.066 319.741 257.37 C 319.464 257.647 319.022 257.785 318.414 257.785 L 306.019 257.785 L 306.019 267.402 L 319.326 267.402 C 319.907 267.402 320.348 267.554 320.653 267.858 C 320.956 268.163 321.109 268.591 321.109 269.143 C 321.109 269.724 320.956 270.166 320.653 270.47 C 320.348 270.746 319.907 270.884 319.326 270.884 L 304.195 270.884 Z M 330.513 271.174 C 329.822 271.174 329.283 270.982 328.897 270.594 C 328.537 270.208 328.358 269.669 328.358 268.977 L 328.358 243.856 C 328.358 243.138 328.551 242.599 328.938 242.239 C 329.325 241.853 329.864 241.659 330.555 241.659 L 340.463 241.659 C 343.613 241.659 346.044 242.405 347.759 243.897 C 349.472 245.39 350.329 247.504 350.329 250.24 C 350.329 252.009 349.941 253.529 349.168 254.8 C 348.394 256.071 347.261 257.038 345.769 257.702 C 344.303 258.365 342.535 258.697 340.463 258.697 L 340.836 258.116 L 341.914 258.116 C 343.018 258.116 343.972 258.393 344.774 258.945 C 345.603 259.499 346.349 260.383 347.012 261.598 L 350.578 268.231 C 350.853 268.729 350.978 269.213 350.951 269.682 C 350.951 270.125 350.785 270.484 350.453 270.76 C 350.148 271.037 349.707 271.174 349.127 271.174 C 348.518 271.174 348.021 271.05 347.634 270.801 C 347.275 270.526 346.943 270.125 346.639 269.599 L 342.287 261.557 C 341.706 260.479 341.043 259.761 340.297 259.401 C 339.551 259.015 338.569 258.821 337.353 258.821 L 332.669 258.821 L 332.669 268.977 C 332.669 269.669 332.489 270.208 332.13 270.594 C 331.771 270.982 331.232 271.174 330.513 271.174 Z M 332.669 255.587 L 339.758 255.587 C 341.857 255.587 343.447 255.146 344.525 254.261 C 345.603 253.377 346.142 252.064 346.142 250.323 C 346.142 248.61 345.603 247.311 344.525 246.426 C 343.447 245.542 341.857 245.099 339.758 245.099 L 332.669 245.099 L 332.669 255.587 Z M 369.109 271.174 C 368.502 271.174 367.99 271.037 367.575 270.76 C 367.189 270.456 366.87 270.014 366.622 269.433 L 355.47 244.187 C 355.25 243.607 355.195 243.11 355.305 242.695 C 355.415 242.28 355.636 241.963 355.968 241.742 C 356.327 241.493 356.755 241.368 357.253 241.368 C 357.889 241.368 358.372 241.507 358.704 241.783 C 359.035 242.06 359.312 242.474 359.533 243.027 L 369.98 267.236 L 368.446 267.236 L 378.809 242.985 C 379.058 242.461 379.348 242.06 379.68 241.783 C 380.04 241.507 380.524 241.368 381.131 241.368 C 381.628 241.368 382.029 241.493 382.333 241.742 C 382.665 241.963 382.872 242.28 382.955 242.695 C 383.038 243.11 382.955 243.607 382.706 244.187 L 371.596 269.433 C 371.348 270.014 371.03 270.456 370.643 270.76 C 370.256 271.037 369.745 271.174 369.109 271.174 Z M 391.254 271.174 C 390.563 271.174 390.025 270.982 389.637 270.594 C 389.278 270.208 389.098 269.669 389.098 268.977 L 389.098 243.566 C 389.098 242.847 389.278 242.309 389.637 241.949 C 390.025 241.562 390.563 241.368 391.254 241.368 C 391.945 241.368 392.47 241.562 392.829 241.949 C 393.217 242.309 393.409 242.847 393.409 243.566 L 393.409 268.977 C 393.409 269.669 393.23 270.208 392.87 270.594 C 392.512 270.982 391.973 271.174 391.254 271.174 Z M 415.364 271.257 C 412.407 271.257 409.878 270.65 407.777 269.433 C 405.677 268.218 404.06 266.49 402.927 264.252 C 401.821 261.986 401.269 259.318 401.269 256.251 C 401.269 253.957 401.587 251.898 402.222 250.074 C 402.858 248.223 403.77 246.648 404.958 245.348 C 406.174 244.022 407.653 243.013 409.394 242.322 C 411.163 241.632 413.153 241.286 415.364 241.286 C 416.994 241.286 418.556 241.507 420.048 241.949 C 421.568 242.391 422.88 243.027 423.986 243.856 C 424.456 244.161 424.76 244.534 424.898 244.975 C 425.064 245.39 425.092 245.791 424.981 246.177 C 424.898 246.565 424.719 246.897 424.442 247.172 C 424.165 247.421 423.807 247.56 423.364 247.587 C 422.95 247.615 422.494 247.462 421.996 247.131 C 421.084 246.441 420.076 245.929 418.97 245.597 C 417.864 245.265 416.704 245.099 415.488 245.099 C 413.387 245.099 411.619 245.542 410.182 246.426 C 408.744 247.283 407.653 248.54 406.907 250.198 C 406.161 251.857 405.787 253.874 405.787 256.251 C 405.787 258.628 406.161 260.66 406.907 262.345 C 407.653 264.003 408.744 265.274 410.182 266.158 C 411.619 267.016 413.387 267.444 415.488 267.444 C 416.704 267.444 417.864 267.278 418.97 266.946 C 420.103 266.588 421.167 266.062 422.162 265.371 C 422.66 265.067 423.102 264.929 423.489 264.956 C 423.903 264.984 424.248 265.122 424.525 265.371 C 424.802 265.62 424.981 265.938 425.064 266.324 C 425.175 266.684 425.16 267.07 425.023 267.485 C 424.912 267.873 424.649 268.204 424.235 268.48 C 423.102 269.392 421.761 270.083 420.214 270.553 C 418.666 271.023 417.05 271.257 415.364 271.257 Z M 434.673 270.884 C 433.926 270.884 433.346 270.692 432.931 270.304 C 432.544 269.889 432.351 269.309 432.351 268.563 L 432.351 243.98 C 432.351 243.234 432.544 242.668 432.931 242.28 C 433.346 241.866 433.926 241.659 434.673 241.659 L 449.804 241.659 C 450.384 241.659 450.825 241.811 451.13 242.115 C 451.434 242.391 451.586 242.806 451.586 243.358 C 451.586 243.939 451.434 244.381 451.13 244.685 C 450.825 244.99 450.384 245.141 449.804 245.141 L 436.497 245.141 L 436.497 254.302 L 448.892 254.302 C 449.499 254.302 449.941 254.455 450.218 254.758 C 450.522 255.063 450.674 255.491 450.674 256.043 C 450.674 256.624 450.522 257.066 450.218 257.37 C 449.941 257.647 449.499 257.785 448.892 257.785 L 436.497 257.785 L 436.497 267.402 L 449.804 267.402 C 450.384 267.402 450.825 267.554 451.13 267.858 C 451.434 268.163 451.586 268.591 451.586 269.143 C 451.586 269.724 451.434 270.166 451.13 270.47 C 450.825 270.746 450.384 270.884 449.804 270.884 L 434.673 270.884 Z" fill="#8D9297" style=""/>
      <path d="M 485.168 270.884 L 479.783 270.884 C 479.203 270.884 478.662 270.608 478.34 270.146 L 459.2 242.694 C 458.925 242.3 459.22 241.771 459.717 241.771 L 465.042 241.771 C 465.591 241.771 466.103 242.033 466.408 242.47 L 485.635 270.047 C 485.885 270.406 485.617 270.884 485.168 270.884 Z M 459.521 270.614 C 458.936 270.614 458.624 269.953 459.013 269.533 L 484.478 241.974 C 484.606 241.835 484.791 241.754 484.986 241.754 C 485.571 241.754 485.883 242.415 485.494 242.835 L 460.031 270.395 C 459.902 270.535 459.716 270.614 459.521 270.614 Z" fill="#46344E" style=""/>
      <path d="M 256.177 286.627 C 257.586 286.627 258.728 285.485 258.728 284.076 L 258.728 281.526 L 258.728 240.923 C 258.728 239.915 258.221 238.974 257.379 238.419 L 229.159 219.812 C 228.157 219.152 226.858 219.152 225.856 219.812 L 197.636 238.419 C 196.794 238.974 196.287 239.915 196.287 240.923 L 196.287 284.185 C 196.287 285.593 197.429 286.735 198.838 286.735 C 200.246 286.735 201.388 285.593 201.388 284.185 L 201.388 243.673 C 201.388 242.664 201.895 241.723 202.737 241.168 L 225.856 225.926 C 226.858 225.265 228.157 225.265 229.159 225.926 L 252.278 241.168 C 253.12 241.723 253.627 242.664 253.627 243.673 L 253.627 284.076 C 253.627 285.485 254.769 286.627 256.177 286.627 Z" fill="#46344E"/>
      <path d="M 225.857 218.245 C 226.858 217.585 228.157 217.585 229.158 218.245 L 263.077 240.605 C 263.947 241.178 265.118 240.926 265.675 240.045 C 266.217 239.188 265.972 238.055 265.126 237.497 L 229.158 213.796 C 228.157 213.136 226.858 213.136 225.857 213.796 L 189.923 237.475 C 189.064 238.041 188.831 239.198 189.404 240.052 C 189.97 240.896 191.111 241.126 191.96 240.567 L 225.857 218.245 Z" fill="#46344E"/>
    </g>
    <g transform="matrix(0.085045, -0.001307, 0.001307, 0.085045, -28.350542, 6.494609)" style="transform-origin: 255.999px 255px;">
      <g>
        <g>
          <path d="M315.733,313.027V67.267C315.733,29.72,285.013-1,247.467-1C209.92-1,179.2,29.72,179.2,67.267v245.76&#10;&#9;&#9;&#9;&#9;c-26.453,20.48-42.667,52.907-42.667,86.187C135.68,458.947,183.467,508.44,243.2,511c1.707,0,2.56,0,4.267,0&#10;&#9;&#9;&#9;&#9;c29.013,0,56.32-11.093,76.8-30.72c22.187-21.333,34.133-49.493,34.133-80.213C358.4,365.933,342.187,334.36,315.733,313.027z&#10;&#9;&#9;&#9;&#9; M313.173,467.48c-18.773,17.92-43.52,27.307-69.12,26.453c-50.347-1.707-91.307-44.373-90.453-94.72&#10;&#9;&#9;&#9;&#9;c0-29.867,15.36-58.027,39.253-75.093c1.707-1.707,3.413-4.267,3.413-6.827V229.4h51.2c5.12,0,8.533-3.413,8.533-8.533&#10;&#9;&#9;&#9;&#9;s-3.413-8.533-8.533-8.533h-51.2v-17.067h25.6c5.12,0,8.533-3.413,8.533-8.533s-3.413-8.533-8.533-8.533h-25.6v-17.067h51.2&#10;&#9;&#9;&#9;&#9;c5.12,0,8.533-3.413,8.533-8.533c0-5.12-3.413-8.533-8.533-8.533h-51.2V127h25.6c5.12,0,8.533-3.413,8.533-8.533&#10;&#9;&#9;&#9;&#9;s-3.413-8.533-8.533-8.533h-25.6V92.867h51.2c5.12,0,8.533-3.413,8.533-8.533c0-5.12-3.413-8.533-8.533-8.533h-51.2v-8.533&#10;&#9;&#9;&#9;&#9;c0-28.16,23.04-51.2,51.2-51.2c28.16,0,51.2,23.04,51.2,51.2v250.027c0,2.56,0.853,5.12,3.413,6.827&#10;&#9;&#9;&#9;&#9;c24.747,17.067,39.253,46.08,39.253,75.947C341.333,425.667,331.093,449.56,313.173,467.48z" style="fill: rgb(70, 52, 78);"/>
          <path d="M291.84,337.773l-10.24-7.68V280.6c0-18.773-15.36-34.133-34.133-34.133c-18.773,0-34.133,15.36-34.133,34.133v49.493&#10;&#9;&#9;&#9;&#9;l-10.24,7.68c-20.48,14.507-32.427,36.693-32.427,61.44c-0.853,40.96,33.28,75.947,73.387,77.653c1.707,0,3.413,0,3.413,0&#10;&#9;&#9;&#9;&#9;c20.48,0,40.107-7.68,54.613-22.187c14.507-14.507,22.187-34.133,22.187-54.613C324.267,375.32,312.32,352.28,291.84,337.773z&#10;&#9;&#9;&#9;&#9; M289.28,442.733c-11.093,11.093-25.6,17.067-41.813,17.067h-2.56c-31.573-1.707-57.173-29.013-58.027-60.587&#10;&#9;&#9;&#9;&#9;c0-18.773,9.387-36.693,24.747-47.787l14.507-10.24c1.707-1.707,3.413-4.267,3.413-6.827V280.6&#10;&#9;&#9;&#9;&#9;c0-9.387,7.68-17.067,17.067-17.067c9.387,0,17.067,7.68,17.067,17.067v53.76c0,2.56,0.853,5.12,3.413,6.827l14.507,10.24&#10;&#9;&#9;&#9;&#9;c15.36,11.093,24.747,29.867,24.747,48.64C306.347,416.28,300.373,431.64,289.28,442.733z" style="fill: rgb(70, 52, 78);"/>
          <path d="M452.267,301.933c-14.507,0-25.6-11.093-25.6-25.6c0-5.12-3.413-8.533-8.533-8.533c-5.12,0-8.533,3.413-8.533,8.533&#10;&#9;&#9;&#9;&#9;c0,14.507-11.093,25.6-25.6,25.6c-5.12,0-8.533,3.413-8.533,8.533S378.88,319,384,319c14.507,0,25.6,11.093,25.6,25.6&#10;&#9;&#9;&#9;&#9;c0,5.12,3.413,8.533,8.533,8.533c5.12,0,8.533-3.413,8.533-8.533c0-14.507,11.093-25.6,25.6-25.6c5.12,0,8.533-3.413,8.533-8.533&#10;&#9;&#9;&#9;&#9;S457.387,301.933,452.267,301.933z M418.133,319c-2.56-3.413-5.12-5.973-8.533-8.533c3.413-2.56,5.973-5.12,8.533-8.533&#10;&#9;&#9;&#9;&#9;c2.56,3.413,5.12,5.973,8.533,8.533C423.253,313.027,420.693,315.587,418.133,319z" style="fill: rgb(70, 52, 78);"/>
          <path d="M375.467,50.2c5.12,0,8.533-3.413,8.533-8.533s-3.413-8.533-8.533-8.533h-8.533V24.6c0-5.12-3.413-8.533-8.533-8.533&#10;&#9;&#9;&#9;&#9;c-5.12,0-8.533,3.413-8.533,8.533v8.533h-8.533c-5.12,0-8.533,3.413-8.533,8.533s3.413,8.533,8.533,8.533h8.533v8.533&#10;&#9;&#9;&#9;&#9;c0,5.12,3.413,8.533,8.533,8.533c5.12,0,8.533-3.413,8.533-8.533V50.2H375.467z" style="fill: rgb(70, 52, 78);"/>
          <path d="M142.507,69.827l-25.6-25.6H104.96l-25.6,25.6v11.947l25.6,25.6h11.947l25.6-25.6V69.827z M110.933,89.453L97.28,75.8&#10;&#9;&#9;&#9;&#9;l13.653-13.653L124.587,75.8L110.933,89.453z" style="fill: rgb(70, 52, 78);"/>
          <path d="M59.733,314.733c-5.12,0-8.533,3.413-8.533,8.533s3.413,8.533,8.533,8.533s8.533-3.413,8.533-8.533&#10;&#9;&#9;&#9;&#9;S64.853,314.733,59.733,314.733z" style="fill: rgb(70, 52, 78);"/>
        </g>
      </g>
    </g>
    <g transform="matrix(0.371699, 0.086077, -0.086077, 0.371699, 113.163933, -44.709938)" style="transform-origin: 140.872px 272.826px;">
      <path d="M 136.162 282.888 C 141.341 286.917 149.098 281.447 149.098 274.964 C 149.098 268.481 143.843 263.227 137.36 263.227 C 130.878 263.227 125.596 268.563 125.623 274.964 C 125.65 281.365 130.983 278.859 136.162 282.888 Z" stroke-miterlimit="10" stroke-linecap="round" stroke-linejoin="round" style="fill-opacity: 0; paint-order: stroke; stroke-width: 4px; stroke: rgb(70, 52, 78);"/>
      <path d="M 91.485 264.733 L 102.898 271.517 C 102.898 267.448 101.562 264.088 105.67 264.088 C 112.752 264.088 115.647 259.08 112.087 252.937 C 110.052 249.416 111.265 244.839 114.825 242.804 L 121.594 238.931 C 124.684 237.092 128.675 238.188 130.514 241.278 L 130.944 242.022 C 134.465 248.164 140.256 248.164 143.816 242.022 L 144.246 241.278 C 146.085 238.188 150.076 237.092 153.166 238.931 L 159.935 242.804 C 163.495 244.839 164.708 249.416 162.673 252.937 C 159.113 259.08 162.008 264.088 169.09 264.088 C 173.159 264.088 176.523 267.413 176.523 271.521 L 176.523 278.407 C 176.523 282.476 173.198 285.84 169.09 285.84 C 162.008 285.84 154.909 285.09 158.469 291.233 C 160.504 294.793 154.225 286.925 150.665 288.96 C 147.688 282.813 93.851 261.275 101.08 269.897 C 78.64 263.304 139.085 271.302 143.091 286.413 L 145.738 287.565 C 142.052 281.559 141.112 282.865 142.778 284.683 L 137.457 282.879 C 135.618 285.969 135.219 280.675 132.129 278.836 C 134.467 275.655 123.698 278.578 123.204 277.302 C 119.644 275.267 106.776 275.535 108.811 272.014 C 112.364 265.867 113.514 270.15 106.432 270.15 C 102.324 270.15 91.485 268.802 91.485 264.733 Z" stroke-miterlimit="10" stroke-linecap="round" stroke-linejoin="round" style="fill-opacity: 0; paint-order: stroke; stroke-width: 4px; stroke: rgb(70, 52, 78);"/>
    </g>
  </g>
</svg>