<svg width="59" height="59" viewBox="0 0 59 59" fill="none" xmlns="http://www.w3.org/2000/svg">
<path d="M11.2886 5.63987C11.2886 6.38051 11.4345 7.1139 11.7179 7.79816C12.0013 8.48242 12.4168 9.10416 12.9405 9.62787C13.4642 10.1516 14.0859 10.567 14.7702 10.8504C15.4545 11.1339 16.1878 11.2797 16.9285 11.2797C17.6691 11.2797 18.4025 11.1339 19.0868 10.8504C19.771 10.567 20.3928 10.1516 20.9165 9.62787C21.4402 9.10416 21.8556 8.48242 22.139 7.79816C22.4225 7.1139 22.5684 6.38051 22.5684 5.63987C22.5684 4.14409 21.9742 2.70956 20.9165 1.65188C19.8588 0.5942 18.4243 0 16.9285 0C15.4327 0 13.9982 0.5942 12.9405 1.65188C11.8828 2.70956 11.2886 4.14409 11.2886 5.63987Z" fill="#8D9297"/>
<path fill-rule="evenodd" clip-rule="evenodd" d="M37.7944 16.1945C37.557 16.1405 37.3143 16.1135 37.0709 16.1139H22.5683V35.4506H11.2886V16.1139H9.6772C7.25142 16.1117 4.91345 17.0215 3.12714 18.6626C1.34083 20.3038 0.236723 22.5565 0.0338802 24.9738C-0.168963 27.3911 0.544281 29.7963 2.0321 31.7122C3.51991 33.6282 5.67358 34.9148 8.0658 35.3169V54.7874C8.0658 55.6421 8.40535 56.4618 9.00974 57.0662C9.61413 57.6706 10.4339 58.0101 11.2886 58.0101C12.1433 58.0101 12.9631 57.6706 13.5674 57.0662C14.1718 56.4618 14.5114 55.6421 14.5114 54.7874V40.2848H19.3456V54.7874C19.3456 55.6421 19.6851 56.4618 20.2895 57.0662C20.8939 57.6706 21.7136 58.0101 22.5683 58.0101C23.4231 58.0101 24.2428 57.6706 24.8472 57.0662C25.4516 56.4618 25.7911 55.6421 25.7911 54.7874V22.5595H37.0709C37.8395 22.5595 38.5437 22.292 39.098 21.8424L42.3176 35.789C40.6519 36.1735 39.2072 37.2038 38.3012 38.6535C37.3952 40.1031 37.1022 41.8532 37.4866 43.5189L39.1786 58.0118L43.7292 56.9611L42.0694 49.0427L45.2245 48.3821L46.8698 56.236L58.0206 53.6626L53.188 39.8949C52.8036 38.2292 51.7732 36.7845 50.3236 35.8785C48.874 34.9725 47.1238 34.6795 45.4582 35.0639L39.2946 8.3728C39.1984 7.95612 38.9407 7.5947 38.5781 7.36806C38.2154 7.14141 37.7776 7.0681 37.3609 7.16426C36.9442 7.26042 36.5828 7.51816 36.3562 7.8808C36.1295 8.24343 36.0562 8.68125 36.1524 9.09793L37.7944 16.1945ZM4.84302 25.7823C4.84302 24.9276 5.18256 24.1078 5.78695 23.5034C6.39134 22.899 7.21107 22.5595 8.0658 22.5595V29.0051C7.21107 29.0051 6.39134 28.6655 5.78695 28.0611C5.18256 27.4568 4.84302 26.637 4.84302 25.7823ZM46.1833 38.2045L43.0411 38.9296C42.2087 39.1222 41.4869 39.6374 41.0343 40.362C40.5816 41.0866 40.4352 41.9613 40.6272 42.7938L50.0474 40.6184C49.8548 39.786 49.3396 39.0642 48.615 38.6116C47.8905 38.1589 47.0158 38.0125 46.1833 38.2045Z" fill="#46344E"/>
<path d="M19.3456 16.1139V20.9481H14.5114V16.1139H19.3456Z" fill="#8D9297"/>
</svg>
