<?xml version="1.0" encoding="UTF-8"?>
<svg viewBox="114.78 155.9 306.78 81.357" xmlns="http://www.w3.org/2000/svg">
<g transform="translate(-71.98 -53.306)">
<path d="m283.76 271.26c-1.272 0-2.516-0.096-3.731-0.29-1.217-0.192-2.363-0.483-3.441-0.87-1.078-0.415-2.046-0.912-2.902-1.493-0.414-0.303-0.705-0.648-0.87-1.036-0.139-0.387-0.181-0.76-0.125-1.119 0.083-0.387 0.249-0.719 0.498-0.995 0.248-0.276 0.552-0.442 0.912-0.498 0.358-0.083 0.759 0.028 1.202 0.332 1.244 0.802 2.556 1.396 3.938 1.782 1.382 0.36 2.887 0.539 4.519 0.539 2.348 0 4.076-0.414 5.182-1.243 1.132-0.856 1.699-1.962 1.699-3.317 0-1.104-0.401-1.975-1.202-2.611-0.802-0.664-2.142-1.188-4.021-1.576l-4.436-0.912c-2.626-0.552-4.588-1.464-5.886-2.736-1.272-1.27-1.907-2.984-1.907-5.14 0-1.299 0.262-2.487 0.787-3.565 0.553-1.078 1.312-2.003 2.28-2.778 0.967-0.801 2.128-1.409 3.483-1.824 1.353-0.414 2.832-0.621 4.435-0.621 1.713 0 3.317 0.221 4.809 0.663 1.519 0.442 2.874 1.119 4.063 2.031 0.359 0.249 0.593 0.567 0.704 0.954 0.138 0.359 0.166 0.719 0.083 1.077-0.055 0.36-0.207 0.664-0.456 0.912-0.249 0.249-0.567 0.402-0.953 0.456-0.387 0.028-0.816-0.109-1.285-0.414-1.078-0.718-2.184-1.229-3.317-1.534-1.106-0.332-2.336-0.497-3.689-0.497-1.355 0-2.544 0.207-3.565 0.621-0.995 0.415-1.769 0.995-2.322 1.742-0.525 0.746-0.787 1.631-0.787 2.653 0 1.16 0.373 2.087 1.119 2.777 0.746 0.691 1.99 1.217 3.731 1.575l4.394 0.912c2.763 0.581 4.822 1.479 6.177 2.695 1.354 1.217 2.031 2.833 2.031 4.85 0 1.3-0.262 2.474-0.788 3.524-0.525 1.023-1.271 1.907-2.238 2.653-0.968 0.746-2.142 1.326-3.524 1.741-1.354 0.388-2.888 0.58-4.601 0.58zm20.44-0.373c-0.746 0-1.326-0.192-1.741-0.58-0.388-0.415-0.58-0.995-0.58-1.741v-24.583c0-0.746 0.192-1.312 0.58-1.7 0.415-0.414 0.995-0.621 1.741-0.621h15.131c0.581 0 1.022 0.152 1.327 0.456 0.303 0.276 0.456 0.691 0.456 1.243 0 0.581-0.153 1.023-0.456 1.327-0.305 0.305-0.746 0.456-1.327 0.456h-13.307v9.161h12.395c0.608 0 1.05 0.153 1.327 0.456 0.303 0.305 0.456 0.733 0.456 1.285 0 0.581-0.153 1.023-0.456 1.327-0.277 0.277-0.719 0.415-1.327 0.415h-12.395v9.617h13.307c0.581 0 1.022 0.152 1.327 0.456 0.303 0.305 0.456 0.733 0.456 1.285 0 0.581-0.153 1.023-0.456 1.327-0.305 0.276-0.746 0.414-1.327 0.414h-15.131zm26.318 0.29c-0.691 0-1.23-0.192-1.616-0.58-0.36-0.386-0.539-0.925-0.539-1.617v-25.121c0-0.718 0.193-1.257 0.58-1.617 0.387-0.386 0.926-0.58 1.617-0.58h9.908c3.15 0 5.581 0.746 7.296 2.238 1.713 1.493 2.57 3.607 2.57 6.343 0 1.769-0.388 3.289-1.161 4.56-0.774 1.271-1.907 2.238-3.399 2.902-1.466 0.663-3.234 0.995-5.306 0.995l0.373-0.581h1.078c1.104 0 2.058 0.277 2.86 0.829 0.829 0.554 1.575 1.438 2.238 2.653l3.566 6.633c0.275 0.498 0.4 0.982 0.373 1.451 0 0.443-0.166 0.802-0.498 1.078-0.305 0.277-0.746 0.414-1.326 0.414-0.609 0-1.106-0.124-1.493-0.373-0.359-0.275-0.691-0.676-0.995-1.202l-4.352-8.042c-0.581-1.078-1.244-1.796-1.99-2.156-0.746-0.386-1.728-0.58-2.944-0.58h-4.684v10.156c0 0.692-0.18 1.231-0.539 1.617-0.359 0.388-0.898 0.58-1.617 0.58zm2.156-15.587h7.089c2.099 0 3.689-0.441 4.767-1.326 1.078-0.884 1.617-2.197 1.617-3.938 0-1.713-0.539-3.012-1.617-3.897-1.078-0.884-2.668-1.327-4.767-1.327h-7.089v10.488zm36.44 15.587c-0.607 0-1.119-0.137-1.534-0.414-0.386-0.304-0.705-0.746-0.953-1.327l-11.152-25.246c-0.22-0.58-0.275-1.077-0.165-1.492s0.331-0.732 0.663-0.953c0.359-0.249 0.787-0.374 1.285-0.374 0.636 0 1.119 0.139 1.451 0.415 0.331 0.277 0.608 0.691 0.829 1.244l10.447 24.209h-1.534l10.363-24.251c0.249-0.524 0.539-0.925 0.871-1.202 0.36-0.276 0.844-0.415 1.451-0.415 0.497 0 0.898 0.125 1.202 0.374 0.332 0.221 0.539 0.538 0.622 0.953s0 0.912-0.249 1.492l-11.11 25.246c-0.248 0.581-0.566 1.023-0.953 1.327-0.387 0.277-0.898 0.414-1.534 0.414zm22.145 0c-0.691 0-1.229-0.192-1.617-0.58-0.359-0.386-0.539-0.925-0.539-1.617v-25.411c0-0.719 0.18-1.257 0.539-1.617 0.388-0.387 0.926-0.581 1.617-0.581s1.216 0.194 1.575 0.581c0.388 0.36 0.58 0.898 0.58 1.617v25.411c0 0.692-0.179 1.231-0.539 1.617-0.358 0.388-0.897 0.58-1.616 0.58zm24.11 0.083c-2.957 0-5.486-0.607-7.587-1.824-2.1-1.215-3.717-2.943-4.85-5.181-1.106-2.266-1.658-4.934-1.658-8.001 0-2.294 0.318-4.353 0.953-6.177 0.636-1.851 1.548-3.426 2.736-4.726 1.216-1.326 2.695-2.335 4.436-3.026 1.769-0.69 3.759-1.036 5.97-1.036 1.63 0 3.192 0.221 4.684 0.663 1.52 0.442 2.832 1.078 3.938 1.907 0.47 0.305 0.774 0.678 0.912 1.119 0.166 0.415 0.194 0.816 0.083 1.202-0.083 0.388-0.262 0.72-0.539 0.995-0.277 0.249-0.635 0.388-1.078 0.415-0.414 0.028-0.87-0.125-1.368-0.456-0.912-0.69-1.92-1.202-3.026-1.534s-2.266-0.498-3.482-0.498c-2.101 0-3.869 0.443-5.306 1.327-1.438 0.857-2.529 2.114-3.275 3.772-0.746 1.659-1.12 3.676-1.12 6.053s0.374 4.409 1.12 6.094c0.746 1.658 1.837 2.929 3.275 3.813 1.437 0.858 3.205 1.286 5.306 1.286 1.216 0 2.376-0.166 3.482-0.498 1.133-0.358 2.197-0.884 3.192-1.575 0.498-0.304 0.94-0.442 1.327-0.415 0.414 0.028 0.759 0.166 1.036 0.415s0.456 0.567 0.539 0.953c0.111 0.36 0.096 0.746-0.041 1.161-0.111 0.388-0.374 0.719-0.788 0.995-1.133 0.912-2.474 1.603-4.021 2.073-1.548 0.47-3.164 0.704-4.85 0.704zm19.309-0.373c-0.747 0-1.327-0.192-1.742-0.58-0.387-0.415-0.58-0.995-0.58-1.741v-24.583c0-0.746 0.193-1.312 0.58-1.7 0.415-0.414 0.995-0.621 1.742-0.621h15.131c0.58 0 1.021 0.152 1.326 0.456 0.304 0.276 0.456 0.691 0.456 1.243 0 0.581-0.152 1.023-0.456 1.327-0.305 0.305-0.746 0.456-1.326 0.456h-13.307v9.161h12.395c0.607 0 1.049 0.153 1.326 0.456 0.304 0.305 0.456 0.733 0.456 1.285 0 0.581-0.152 1.023-0.456 1.327-0.277 0.277-0.719 0.415-1.326 0.415h-12.395v9.617h13.307c0.58 0 1.021 0.152 1.326 0.456 0.304 0.305 0.456 0.733 0.456 1.285 0 0.581-0.152 1.023-0.456 1.327-0.305 0.276-0.746 0.414-1.326 0.414h-15.131z" fill="#8D9297" style=""/>
<path d="m485.17 270.88h-5.385c-0.58 0-1.121-0.276-1.443-0.738l-19.14-27.452c-0.275-0.394 0.02-0.923 0.517-0.923h5.325c0.549 0 1.061 0.262 1.366 0.699l19.227 27.577c0.25 0.359-0.018 0.837-0.467 0.837zm-25.647-0.27c-0.585 0-0.897-0.661-0.508-1.081l25.465-27.559c0.128-0.139 0.313-0.22 0.508-0.22 0.585 0 0.897 0.661 0.508 1.081l-25.463 27.56c-0.129 0.14-0.315 0.219-0.51 0.219z" fill="#46344E" style=""/>
<path d="m256.18 286.63c1.409 0 2.551-1.142 2.551-2.551v-2.55-40.603c0-1.008-0.507-1.949-1.349-2.504l-28.22-18.607c-1.002-0.66-2.301-0.66-3.303 0l-28.22 18.607c-0.842 0.555-1.349 1.496-1.349 2.504v43.262c0 1.408 1.142 2.55 2.551 2.55 1.408 0 2.55-1.142 2.55-2.55v-40.512c0-1.009 0.507-1.95 1.349-2.505l23.119-15.242c1.002-0.661 2.301-0.661 3.303 0l23.119 15.242c0.842 0.555 1.349 1.496 1.349 2.505v40.403c0 1.409 1.142 2.551 2.55 2.551z" fill="#46344E"/>
<path d="m225.86 218.24c1.001-0.66 2.3-0.66 3.301 0l33.919 22.36c0.87 0.573 2.041 0.321 2.598-0.56 0.542-0.857 0.297-1.99-0.549-2.548l-35.968-23.701c-1.001-0.66-2.3-0.66-3.301 0l-35.934 23.679c-0.859 0.566-1.092 1.723-0.519 2.577 0.566 0.844 1.707 1.074 2.556 0.515l33.897-22.322z" fill="#46344E"/>
<g transform="matrix(.085045 -.001307 .001307 .085045 -28.351 6.4946)" style="transform-origin:255.999px 255px">
<g fill="#46344e">
<path d="m315.73 313.03v-245.76c0-37.547-30.72-68.267-68.266-68.267-37.547 0-68.267 30.72-68.267 68.267v245.76c-26.453 20.48-42.667 52.907-42.667 86.187-0.853 59.733 46.934 109.23 106.67 111.79h4.267c29.013 0 56.32-11.093 76.8-30.72 22.187-21.333 34.133-49.493 34.133-80.213 0-34.134-16.213-65.707-42.667-87.04zm-2.56 154.45c-18.773 17.92-43.52 27.307-69.12 26.453-50.347-1.707-91.307-44.373-90.453-94.72 0-29.867 15.36-58.027 39.253-75.093 1.707-1.707 3.413-4.267 3.413-6.827v-87.893h51.2c5.12 0 8.533-3.413 8.533-8.533s-3.413-8.533-8.533-8.533h-51.2v-17.067h25.6c5.12 0 8.533-3.413 8.533-8.533s-3.413-8.533-8.533-8.533h-25.6v-17.067h51.2c5.12 0 8.533-3.413 8.533-8.533s-3.413-8.533-8.533-8.533h-51.2v-17.068h25.6c5.12 0 8.533-3.413 8.533-8.533s-3.413-8.533-8.533-8.533h-25.6v-17.067h51.2c5.12 0 8.533-3.413 8.533-8.533s-3.413-8.533-8.533-8.533h-51.2v-8.533c0-28.16 23.04-51.2 51.2-51.2s51.2 23.04 51.2 51.2v250.03c0 2.56 0.853 5.12 3.413 6.827 24.747 17.067 39.253 46.08 39.253 75.947 1e-3 25.598-10.239 49.491-28.159 67.411z"/>
<path d="m291.84 337.77-10.24-7.68v-49.493c0-18.773-15.36-34.133-34.133-34.133s-34.133 15.36-34.133 34.133v49.493l-10.24 7.68c-20.48 14.507-32.427 36.693-32.427 61.44-0.853 40.96 33.28 75.947 73.387 77.653h3.413c20.48 0 40.107-7.68 54.613-22.187 14.507-14.507 22.187-34.133 22.187-54.613 0-24.746-11.947-47.786-32.427-62.293zm-2.56 104.96c-11.093 11.093-25.6 17.067-41.813 17.067h-2.56c-31.573-1.707-57.173-29.013-58.027-60.587 0-18.773 9.387-36.693 24.747-47.787l14.507-10.24c1.707-1.707 3.413-4.267 3.413-6.827v-53.759c0-9.387 7.68-17.067 17.067-17.067s17.067 7.68 17.067 17.067v53.76c0 2.56 0.853 5.12 3.413 6.827l14.507 10.24c15.36 11.093 24.747 29.867 24.747 48.64-1e-3 16.213-5.975 31.573-17.068 42.666z"/>
<path d="m452.27 301.93c-14.507 0-25.6-11.093-25.6-25.6 0-5.12-3.413-8.533-8.533-8.533s-8.533 3.413-8.533 8.533c0 14.507-11.093 25.6-25.6 25.6-5.12 0-8.533 3.413-8.533 8.533s3.412 8.534 8.532 8.534c14.507 0 25.6 11.093 25.6 25.6 0 5.12 3.413 8.533 8.533 8.533s8.533-3.413 8.533-8.533c0-14.507 11.093-25.6 25.6-25.6 5.12 0 8.533-3.413 8.533-8.533s-3.412-8.534-8.532-8.534zm-34.134 17.067c-2.56-3.413-5.12-5.973-8.533-8.533 3.413-2.56 5.973-5.12 8.533-8.533 2.56 3.413 5.12 5.973 8.533 8.533-3.413 2.56-5.973 5.12-8.533 8.533z"/>
<path d="m375.47 50.2c5.12 0 8.533-3.413 8.533-8.533s-3.413-8.533-8.533-8.533h-8.533v-8.534c0-5.12-3.413-8.533-8.533-8.533s-8.533 3.413-8.533 8.533v8.533h-8.533c-5.12 0-8.533 3.413-8.533 8.533s3.413 8.533 8.533 8.533h8.533v8.533c0 5.12 3.413 8.533 8.533 8.533s8.533-3.413 8.533-8.533v-8.532h8.533z"/>
<path d="m142.51 69.827-25.6-25.6h-11.947l-25.6 25.6v11.947l25.6 25.6h11.947l25.6-25.6v-11.947zm-31.574 19.626-13.653-13.653 13.653-13.653 13.654 13.653-13.654 13.653z"/>
<path d="m59.733 314.73c-5.12 0-8.533 3.413-8.533 8.533s3.413 8.533 8.533 8.533 8.533-3.413 8.533-8.533-3.413-8.533-8.533-8.533z"/>
</g>
</g>
<g transform="matrix(.3717 .086077 -.086077 .3717 113.16 -44.71)" fill-opacity="0" stroke="#46344e" stroke-linecap="round" stroke-linejoin="round" stroke-miterlimit="10" stroke-width="4px" style="transform-origin:140.872px 272.826px">
<path d="m136.16 282.89c5.179 4.029 12.936-1.441 12.936-7.924s-5.255-11.737-11.738-11.737c-6.482 0-11.764 5.336-11.737 11.737s5.36 3.895 10.539 7.924z" style="paint-order:stroke"/>
<path d="m91.485 264.73 11.413 6.784c0-4.069-1.336-7.429 2.772-7.429 7.082 0 9.977-5.008 6.417-11.151-2.035-3.521-0.822-8.098 2.738-10.133l6.769-3.873c3.09-1.839 7.081-0.743 8.92 2.347l0.43 0.744c3.521 6.142 9.312 6.142 12.872 0l0.43-0.744c1.839-3.09 5.83-4.186 8.92-2.347l6.769 3.873c3.56 2.035 4.773 6.612 2.738 10.133-3.56 6.143-0.665 11.151 6.417 11.151 4.069 0 7.433 3.325 7.433 7.433v6.886c0 4.069-3.325 7.433-7.433 7.433-7.082 0-14.181-0.75-10.621 5.393 2.035 3.56-4.244-4.308-7.804-2.273-2.977-6.147-56.814-27.685-49.585-19.063-22.44-6.593 38.005 1.405 42.011 16.516l2.647 1.152c-3.686-6.006-4.626-4.7-2.96-2.882l-5.321-1.804c-1.839 3.09-2.238-2.204-5.328-4.043 2.338-3.181-8.431-0.258-8.925-1.534-3.56-2.035-16.428-1.767-14.393-5.288 3.553-6.147 4.703-1.864-2.379-1.864-4.108 0-14.947-1.348-14.947-5.417z" style="paint-order:stroke"/>
</g>
</g>
</svg>
