<svg width="256" height="59" viewBox="0 0 256 59" fill="none" xmlns="http://www.w3.org/2000/svg">
<path d="M73.729 37.333C72.5943 37.333 71.4843 37.2467 70.399 37.074C69.3137 36.9013 68.29 36.6423 67.328 36.297C66.366 35.927 65.5027 35.483 64.738 34.965C64.368 34.6937 64.109 34.3853 63.961 34.04C63.8377 33.6947 63.8007 33.3617 63.85 33.041C63.924 32.6957 64.072 32.3997 64.294 32.153C64.516 31.9063 64.7873 31.7583 65.108 31.709C65.4287 31.635 65.7863 31.7337 66.181 32.005C67.291 32.7203 68.4627 33.2507 69.696 33.596C70.9293 33.9167 72.2737 34.077 73.729 34.077C75.8257 34.077 77.3673 33.707 78.354 32.967C79.3653 32.2023 79.871 31.2157 79.871 30.007C79.871 29.0203 79.5133 28.2433 78.798 27.676C78.0827 27.084 76.8863 26.6153 75.209 26.27L71.25 25.456C68.9067 24.9627 67.1553 24.1487 65.996 23.014C64.8613 21.8793 64.294 20.35 64.294 18.426C64.294 17.2667 64.5283 16.206 64.997 15.244C65.4903 14.282 66.1687 13.4557 67.032 12.765C67.8953 12.0497 68.9313 11.507 70.14 11.137C71.3487 10.767 72.6683 10.582 74.099 10.582C75.6283 10.582 77.059 10.7793 78.391 11.174C79.7477 11.5687 80.9563 12.173 82.017 12.987C82.3377 13.209 82.5473 13.4927 82.646 13.838C82.7693 14.1587 82.794 14.4793 82.72 14.8C82.6707 15.1207 82.535 15.392 82.313 15.614C82.091 15.836 81.8073 15.9717 81.462 16.021C81.1167 16.0457 80.7343 15.9223 80.315 15.651C79.353 15.0097 78.3663 14.5533 77.355 14.282C76.3683 13.986 75.2707 13.838 74.062 13.838C72.8533 13.838 71.7927 14.023 70.88 14.393C69.992 14.763 69.3013 15.281 68.808 15.947C68.3393 16.613 68.105 17.4023 68.105 18.315C68.105 19.351 68.438 20.1773 69.104 20.794C69.77 21.4107 70.88 21.8793 72.434 22.2L76.356 23.014C78.8227 23.532 80.6603 24.3337 81.869 25.419C83.0777 26.5043 83.682 27.9473 83.682 29.748C83.682 30.9073 83.4477 31.9557 82.979 32.893C82.5103 33.8057 81.8443 34.595 80.981 35.261C80.1177 35.927 79.0693 36.445 77.836 36.815C76.6273 37.1603 75.2583 37.333 73.729 37.333ZM91.9726 37C91.3066 37 90.7886 36.8273 90.4186 36.482C90.0733 36.112 89.9006 35.594 89.9006 34.928V12.987C89.9006 12.321 90.0733 11.8153 90.4186 11.47C90.7886 11.1 91.3066 10.915 91.9726 10.915H105.478C105.996 10.915 106.39 11.0507 106.662 11.322C106.933 11.5687 107.069 11.9387 107.069 12.432C107.069 12.95 106.933 13.3447 106.662 13.616C106.39 13.8873 105.996 14.023 105.478 14.023H93.6006V22.2H104.664C105.206 22.2 105.601 22.3357 105.848 22.607C106.119 22.8783 106.255 23.2607 106.255 23.754C106.255 24.272 106.119 24.6667 105.848 24.938C105.601 25.1847 105.206 25.308 104.664 25.308H93.6006V33.892H105.478C105.996 33.892 106.39 34.0277 106.662 34.299C106.933 34.5703 107.069 34.9527 107.069 35.446C107.069 35.964 106.933 36.3587 106.662 36.63C106.39 36.8767 105.996 37 105.478 37H91.9726ZM115.463 37.259C114.846 37.259 114.365 37.0863 114.02 36.741C113.699 36.3957 113.539 35.9147 113.539 35.298V12.876C113.539 12.2347 113.711 11.7537 114.057 11.433C114.402 11.0877 114.883 10.915 115.5 10.915H124.343C127.155 10.915 129.325 11.581 130.855 12.913C132.384 14.245 133.149 16.132 133.149 18.574C133.149 20.1527 132.803 21.5093 132.113 22.644C131.422 23.7787 130.411 24.642 129.079 25.234C127.771 25.826 126.193 26.122 124.343 26.122L124.676 25.604H125.638C126.624 25.604 127.475 25.8507 128.191 26.344C128.931 26.8373 129.597 27.6267 130.189 28.712L133.371 34.632C133.617 35.076 133.728 35.5077 133.704 35.927C133.704 36.3217 133.556 36.6423 133.26 36.889C132.988 37.1357 132.594 37.259 132.076 37.259C131.533 37.259 131.089 37.148 130.744 36.926C130.423 36.6793 130.127 36.3217 129.856 35.853L125.971 28.675C125.453 27.713 124.861 27.0717 124.195 26.751C123.529 26.4057 122.653 26.233 121.568 26.233H117.387V35.298C117.387 35.9147 117.226 36.3957 116.906 36.741C116.585 37.0863 116.104 37.259 115.463 37.259ZM117.387 23.347H123.714C125.588 23.347 127.007 22.9523 127.969 22.163C128.931 21.3737 129.412 20.202 129.412 18.648C129.412 17.1187 128.931 15.9593 127.969 15.17C127.007 14.3807 125.588 13.986 123.714 13.986H117.387V23.347ZM149.911 37.259C149.368 37.259 148.912 37.1357 148.542 36.889C148.197 36.6177 147.913 36.223 147.691 35.705L137.738 13.172C137.541 12.654 137.491 12.21 137.59 11.84C137.689 11.47 137.886 11.1863 138.182 10.989C138.503 10.767 138.885 10.656 139.329 10.656C139.896 10.656 140.328 10.7793 140.624 11.026C140.92 11.2727 141.167 11.6427 141.364 12.136L150.688 33.744H149.319L158.569 12.099C158.791 11.6303 159.05 11.2727 159.346 11.026C159.667 10.7793 160.098 10.656 160.641 10.656C161.085 10.656 161.443 10.767 161.714 10.989C162.01 11.1863 162.195 11.47 162.269 11.84C162.343 12.21 162.269 12.654 162.047 13.172L152.131 35.705C151.909 36.223 151.625 36.6177 151.28 36.889C150.935 37.1357 150.478 37.259 149.911 37.259ZM169.676 37.259C169.06 37.259 168.579 37.0863 168.233 36.741C167.913 36.3957 167.752 35.9147 167.752 35.298V12.617C167.752 11.9757 167.913 11.4947 168.233 11.174C168.579 10.8287 169.06 10.656 169.676 10.656C170.293 10.656 170.762 10.8287 171.082 11.174C171.428 11.4947 171.6 11.9757 171.6 12.617V35.298C171.6 35.9147 171.44 36.3957 171.119 36.741C170.799 37.0863 170.318 37.259 169.676 37.259ZM191.195 37.333C188.555 37.333 186.298 36.7903 184.424 35.705C182.549 34.6197 181.106 33.078 180.095 31.08C179.108 29.0573 178.615 26.677 178.615 23.939C178.615 21.8917 178.898 20.054 179.466 18.426C180.033 16.7733 180.847 15.3673 181.908 14.208C182.993 13.024 184.313 12.1237 185.867 11.507C187.445 10.8903 189.221 10.582 191.195 10.582C192.65 10.582 194.044 10.7793 195.376 11.174C196.732 11.5687 197.904 12.136 198.891 12.876C199.31 13.1473 199.581 13.4803 199.705 13.875C199.853 14.245 199.877 14.6027 199.779 14.948C199.705 15.2933 199.544 15.5893 199.298 15.836C199.051 16.058 198.73 16.1813 198.336 16.206C197.966 16.2307 197.559 16.095 197.115 15.799C196.301 15.1823 195.4 14.726 194.414 14.43C193.427 14.134 192.391 13.986 191.306 13.986C189.431 13.986 187.852 14.3807 186.57 15.17C185.287 15.9347 184.313 17.057 183.647 18.537C182.981 20.017 182.648 21.8177 182.648 23.939C182.648 26.0603 182.981 27.8733 183.647 29.378C184.313 30.858 185.287 31.9927 186.57 32.782C187.852 33.5467 189.431 33.929 191.306 33.929C192.391 33.929 193.427 33.781 194.414 33.485C195.425 33.1643 196.375 32.6957 197.263 32.079C197.707 31.8077 198.101 31.6843 198.447 31.709C198.817 31.7337 199.125 31.857 199.372 32.079C199.618 32.301 199.779 32.5847 199.853 32.93C199.951 33.2507 199.939 33.596 199.816 33.966C199.717 34.3113 199.483 34.6073 199.113 34.854C198.101 35.668 196.905 36.2847 195.524 36.704C194.142 37.1233 192.699 37.333 191.195 37.333ZM208.429 37C207.763 37 207.245 36.8273 206.875 36.482C206.529 36.112 206.357 35.594 206.357 34.928V12.987C206.357 12.321 206.529 11.8153 206.875 11.47C207.245 11.1 207.763 10.915 208.429 10.915H221.934C222.452 10.915 222.846 11.0507 223.118 11.322C223.389 11.5687 223.525 11.9387 223.525 12.432C223.525 12.95 223.389 13.3447 223.118 13.616C222.846 13.8873 222.452 14.023 221.934 14.023H210.057V22.2H221.12C221.662 22.2 222.057 22.3357 222.304 22.607C222.575 22.8783 222.711 23.2607 222.711 23.754C222.711 24.272 222.575 24.6667 222.304 24.938C222.057 25.1847 221.662 25.308 221.12 25.308H210.057V33.892H221.934C222.452 33.892 222.846 34.0277 223.118 34.299C223.389 34.5703 223.525 34.9527 223.525 35.446C223.525 35.964 223.389 36.3587 223.118 36.63C222.846 36.8767 222.452 37 221.934 37H208.429Z" fill="#8D9297"/>
<path d="M65.848 54C65.6427 54 65.484 53.9487 65.372 53.846C65.2693 53.734 65.218 53.5753 65.218 53.37V44.76C65.218 44.5547 65.2693 44.4007 65.372 44.298C65.484 44.186 65.6427 44.13 65.848 44.13H68.55C70.146 44.13 71.378 44.55 72.246 45.39C73.114 46.23 73.548 47.4527 73.548 49.058C73.548 49.8607 73.436 50.57 73.212 51.186C72.9973 51.7927 72.6753 52.306 72.246 52.726C71.8167 53.146 71.294 53.4633 70.678 53.678C70.062 53.8927 69.3527 54 68.55 54H65.848ZM66.366 53.02H68.466C69.1193 53.02 69.684 52.936 70.16 52.768C70.6453 52.6 71.0467 52.3527 71.364 52.026C71.6907 51.6993 71.9333 51.2887 72.092 50.794C72.2507 50.29 72.33 49.7113 72.33 49.058C72.33 47.742 72.008 46.7573 71.364 46.104C70.72 45.4413 69.754 45.11 68.466 45.11H66.366V53.02ZM79.5426 54.126C78.88 54.126 78.306 53.9813 77.8206 53.692C77.3353 53.4027 76.9573 52.9967 76.6866 52.474C76.4253 51.942 76.2946 51.3167 76.2946 50.598C76.2946 50.0567 76.3693 49.5713 76.5186 49.142C76.668 48.7033 76.8873 48.33 77.1766 48.022C77.466 47.714 77.8066 47.4807 78.1986 47.322C78.6 47.154 79.048 47.07 79.5426 47.07C80.2053 47.07 80.7793 47.2147 81.2646 47.504C81.75 47.7933 82.1233 48.204 82.3846 48.736C82.6553 49.2587 82.7906 49.8793 82.7906 50.598C82.7906 51.1393 82.716 51.6247 82.5666 52.054C82.4173 52.4833 82.198 52.8567 81.9086 53.174C81.6193 53.482 81.274 53.72 80.8726 53.888C80.4806 54.0467 80.0373 54.126 79.5426 54.126ZM79.5426 53.216C79.9626 53.216 80.3313 53.1133 80.6486 52.908C80.966 52.7027 81.2086 52.404 81.3766 52.012C81.554 51.62 81.6426 51.1487 81.6426 50.598C81.6426 49.7487 81.4513 49.1 81.0686 48.652C80.6953 48.204 80.1866 47.98 79.5426 47.98C79.1133 47.98 78.74 48.0827 78.4226 48.288C78.1146 48.484 77.872 48.778 77.6946 49.17C77.5266 49.5527 77.4426 50.0287 77.4426 50.598C77.4426 51.438 77.634 52.0867 78.0166 52.544C78.3993 52.992 78.908 53.216 79.5426 53.216ZM86.3419 54.098C86.1553 54.098 86.0153 54.0467 85.9219 53.944C85.8286 53.8413 85.7819 53.6967 85.7819 53.51V47.672C85.7819 47.4853 85.8286 47.3453 85.9219 47.252C86.0153 47.1493 86.1506 47.098 86.3279 47.098C86.5053 47.098 86.6406 47.1493 86.7339 47.252C86.8366 47.3453 86.8879 47.4853 86.8879 47.672V48.904L86.7339 48.708C86.9113 48.1853 87.1959 47.784 87.5879 47.504C87.9893 47.2147 88.4653 47.07 89.0159 47.07C89.5946 47.07 90.0613 47.21 90.4159 47.49C90.7799 47.7607 91.0226 48.1853 91.1439 48.764H90.9339C91.1019 48.2413 91.4006 47.8307 91.8299 47.532C92.2686 47.224 92.7773 47.07 93.3559 47.07C93.8693 47.07 94.2893 47.168 94.6159 47.364C94.9519 47.56 95.2039 47.8587 95.3719 48.26C95.5399 48.652 95.6239 49.1513 95.6239 49.758V53.51C95.6239 53.6967 95.5726 53.8413 95.4699 53.944C95.3766 54.0467 95.2366 54.098 95.0499 54.098C94.8726 54.098 94.7326 54.0467 94.6299 53.944C94.5366 53.8413 94.4899 53.6967 94.4899 53.51V49.814C94.4899 49.1887 94.3826 48.7313 94.1679 48.442C93.9533 48.1433 93.5893 47.994 93.0759 47.994C92.5159 47.994 92.0726 48.19 91.7459 48.582C91.4286 48.9647 91.2699 49.4873 91.2699 50.15V53.51C91.2699 53.6967 91.2186 53.8413 91.1159 53.944C91.0226 54.0467 90.8826 54.098 90.6959 54.098C90.5186 54.098 90.3786 54.0467 90.2759 53.944C90.1826 53.8413 90.1359 53.6967 90.1359 53.51V49.814C90.1359 49.1887 90.0239 48.7313 89.7999 48.442C89.5853 48.1433 89.2259 47.994 88.7219 47.994C88.1619 47.994 87.7186 48.19 87.3919 48.582C87.0746 48.9647 86.9159 49.4873 86.9159 50.15V53.51C86.9159 53.902 86.7246 54.098 86.3419 54.098ZM102.07 54.126C101.351 54.126 100.731 53.986 100.208 53.706C99.6948 53.4167 99.2935 53.0107 99.0042 52.488C98.7242 51.9653 98.5842 51.34 98.5842 50.612C98.5842 49.9027 98.7242 49.2867 99.0042 48.764C99.2842 48.232 99.6668 47.8167 100.152 47.518C100.647 47.2193 101.216 47.07 101.86 47.07C102.317 47.07 102.728 47.1493 103.092 47.308C103.456 47.4573 103.764 47.6767 104.016 47.966C104.277 48.2553 104.473 48.6053 104.604 49.016C104.744 49.4267 104.814 49.8887 104.814 50.402C104.814 50.5513 104.772 50.6633 104.688 50.738C104.604 50.8033 104.483 50.836 104.324 50.836H99.4522V50.094H104.058L103.834 50.276C103.834 49.772 103.759 49.3473 103.61 49.002C103.461 48.6473 103.241 48.3767 102.952 48.19C102.672 48.0033 102.317 47.91 101.888 47.91C101.412 47.91 101.006 48.022 100.67 48.246C100.343 48.4607 100.096 48.764 99.9282 49.156C99.7602 49.5387 99.6762 49.9867 99.6762 50.5V50.584C99.6762 51.4427 99.8815 52.096 100.292 52.544C100.712 52.992 101.305 53.216 102.07 53.216C102.387 53.216 102.7 53.174 103.008 53.09C103.325 53.006 103.633 52.866 103.932 52.67C104.063 52.586 104.179 52.5487 104.282 52.558C104.394 52.558 104.483 52.5907 104.548 52.656C104.613 52.712 104.655 52.7867 104.674 52.88C104.702 52.964 104.693 53.0573 104.646 53.16C104.609 53.2627 104.529 53.3513 104.408 53.426C104.1 53.65 103.736 53.8227 103.316 53.944C102.896 54.0653 102.481 54.126 102.07 54.126ZM110.011 54.126C109.591 54.126 109.167 54.0747 108.737 53.972C108.317 53.8693 107.925 53.692 107.561 53.44C107.468 53.3747 107.403 53.3 107.365 53.216C107.328 53.1227 107.314 53.034 107.323 52.95C107.342 52.8567 107.379 52.7773 107.435 52.712C107.501 52.6467 107.575 52.6093 107.659 52.6C107.753 52.5813 107.855 52.6 107.967 52.656C108.331 52.88 108.681 53.0387 109.017 53.132C109.363 53.216 109.703 53.258 110.039 53.258C110.571 53.258 110.973 53.16 111.243 52.964C111.514 52.768 111.649 52.502 111.649 52.166C111.649 51.9047 111.561 51.6993 111.383 51.55C111.206 51.3913 110.926 51.27 110.543 51.186L109.269 50.906C108.681 50.7847 108.243 50.5747 107.953 50.276C107.673 49.9773 107.533 49.59 107.533 49.114C107.533 48.694 107.641 48.3347 107.855 48.036C108.079 47.728 108.392 47.49 108.793 47.322C109.195 47.154 109.661 47.07 110.193 47.07C110.604 47.07 110.991 47.126 111.355 47.238C111.729 47.3407 112.065 47.5087 112.363 47.742C112.457 47.8073 112.517 47.8867 112.545 47.98C112.583 48.064 112.587 48.1527 112.559 48.246C112.541 48.33 112.499 48.4047 112.433 48.47C112.368 48.526 112.289 48.5587 112.195 48.568C112.102 48.5773 112.004 48.5493 111.901 48.484C111.621 48.2973 111.337 48.162 111.047 48.078C110.758 47.9847 110.473 47.938 110.193 47.938C109.671 47.938 109.274 48.0407 109.003 48.246C108.733 48.4513 108.597 48.722 108.597 49.058C108.597 49.3193 108.681 49.534 108.849 49.702C109.017 49.87 109.279 49.9913 109.633 50.066L110.907 50.332C111.514 50.4627 111.967 50.6727 112.265 50.962C112.573 51.242 112.727 51.6247 112.727 52.11C112.727 52.726 112.48 53.216 111.985 53.58C111.491 53.944 110.833 54.126 110.011 54.126ZM118.377 54.126C117.845 54.126 117.397 54.0327 117.033 53.846C116.679 53.65 116.413 53.37 116.235 53.006C116.058 52.6327 115.969 52.18 115.969 51.648V48.078H115.031C114.873 48.078 114.751 48.0407 114.667 47.966C114.583 47.882 114.541 47.77 114.541 47.63C114.541 47.49 114.583 47.3827 114.667 47.308C114.751 47.2333 114.873 47.196 115.031 47.196H115.969V45.586C115.969 45.3993 116.021 45.2593 116.123 45.166C116.226 45.0633 116.366 45.012 116.543 45.012C116.721 45.012 116.856 45.0633 116.949 45.166C117.052 45.2593 117.103 45.3993 117.103 45.586V47.196H118.867C119.026 47.196 119.147 47.2333 119.231 47.308C119.315 47.3827 119.357 47.49 119.357 47.63C119.357 47.77 119.315 47.882 119.231 47.966C119.147 48.0407 119.026 48.078 118.867 48.078H117.103V51.536C117.103 52.068 117.215 52.474 117.439 52.754C117.663 53.0247 118.027 53.16 118.531 53.16C118.709 53.16 118.858 53.1413 118.979 53.104C119.11 53.0667 119.217 53.048 119.301 53.048C119.385 53.0387 119.455 53.0667 119.511 53.132C119.567 53.1973 119.595 53.3093 119.595 53.468C119.595 53.58 119.572 53.6827 119.525 53.776C119.488 53.8693 119.418 53.9347 119.315 53.972C119.203 54.0093 119.054 54.042 118.867 54.07C118.69 54.1073 118.527 54.126 118.377 54.126ZM122.444 54.07C122.257 54.07 122.117 54.0187 122.024 53.916C121.93 53.804 121.884 53.65 121.884 53.454V47.728C121.884 47.532 121.93 47.3827 122.024 47.28C122.117 47.1773 122.257 47.126 122.444 47.126C122.621 47.126 122.761 47.1773 122.864 47.28C122.966 47.3827 123.018 47.532 123.018 47.728V53.454C123.018 53.65 122.966 53.804 122.864 53.916C122.77 54.0187 122.63 54.07 122.444 54.07ZM122.444 45.558C122.21 45.558 122.028 45.4973 121.898 45.376C121.767 45.2453 121.702 45.0727 121.702 44.858C121.702 44.634 121.767 44.466 121.898 44.354C122.028 44.2327 122.21 44.172 122.444 44.172C122.686 44.172 122.868 44.2327 122.99 44.354C123.12 44.466 123.186 44.634 123.186 44.858C123.186 45.0727 123.12 45.2453 122.99 45.376C122.868 45.4973 122.686 45.558 122.444 45.558ZM129.282 54.126C128.6 54.126 128.012 53.9767 127.518 53.678C127.023 53.3793 126.64 52.964 126.37 52.432C126.108 51.8907 125.978 51.2653 125.978 50.556C125.978 50.0147 126.052 49.5293 126.202 49.1C126.351 48.6707 126.57 48.3067 126.86 48.008C127.149 47.7 127.494 47.4667 127.896 47.308C128.306 47.1493 128.768 47.07 129.282 47.07C129.618 47.07 129.968 47.1213 130.332 47.224C130.696 47.3267 131.027 47.504 131.326 47.756C131.419 47.8213 131.48 47.9007 131.508 47.994C131.536 48.0873 131.536 48.1807 131.508 48.274C131.48 48.358 131.433 48.4327 131.368 48.498C131.302 48.554 131.218 48.5867 131.116 48.596C131.022 48.6053 130.924 48.5727 130.822 48.498C130.579 48.3113 130.332 48.1807 130.08 48.106C129.828 48.0313 129.585 47.994 129.352 47.994C128.988 47.994 128.67 48.0547 128.4 48.176C128.129 48.288 127.9 48.4513 127.714 48.666C127.527 48.8807 127.382 49.1467 127.28 49.464C127.186 49.7813 127.14 50.15 127.14 50.57C127.14 51.382 127.331 52.026 127.714 52.502C128.096 52.9687 128.642 53.202 129.352 53.202C129.585 53.202 129.823 53.1647 130.066 53.09C130.318 53.0153 130.57 52.8847 130.822 52.698C130.924 52.6233 131.022 52.5907 131.116 52.6C131.209 52.6093 131.288 52.6467 131.354 52.712C131.419 52.768 131.461 52.8427 131.48 52.936C131.508 53.0293 131.508 53.1227 131.48 53.216C131.452 53.3 131.391 53.3747 131.298 53.44C130.999 53.6827 130.672 53.86 130.318 53.972C129.963 54.0747 129.618 54.126 129.282 54.126ZM141.15 54.126C140.683 54.126 140.263 54.0373 139.89 53.86C139.526 53.6733 139.236 53.4213 139.022 53.104C138.807 52.7867 138.7 52.432 138.7 52.04C138.7 51.536 138.826 51.1393 139.078 50.85C139.339 50.5607 139.764 50.3553 140.352 50.234C140.949 50.1127 141.761 50.052 142.788 50.052H143.418V50.794H142.802C142.046 50.794 141.448 50.8313 141.01 50.906C140.58 50.9713 140.277 51.088 140.1 51.256C139.932 51.424 139.848 51.662 139.848 51.97C139.848 52.3527 139.978 52.6653 140.24 52.908C140.51 53.1507 140.874 53.272 141.332 53.272C141.705 53.272 142.032 53.1833 142.312 53.006C142.601 52.8287 142.825 52.586 142.984 52.278C143.152 51.97 143.236 51.6153 143.236 51.214V49.618C143.236 49.0393 143.119 48.624 142.886 48.372C142.652 48.1107 142.27 47.98 141.738 47.98C141.411 47.98 141.084 48.022 140.758 48.106C140.431 48.19 140.086 48.3253 139.722 48.512C139.591 48.5773 139.479 48.6007 139.386 48.582C139.292 48.554 139.218 48.5027 139.162 48.428C139.106 48.3533 139.073 48.2693 139.064 48.176C139.054 48.0733 139.073 47.9753 139.12 47.882C139.176 47.7887 139.26 47.714 139.372 47.658C139.782 47.4527 140.188 47.3033 140.59 47.21C140.991 47.1167 141.374 47.07 141.738 47.07C142.326 47.07 142.811 47.168 143.194 47.364C143.576 47.5507 143.861 47.84 144.048 48.232C144.234 48.6147 144.328 49.1093 144.328 49.716V53.51C144.328 53.6967 144.281 53.8413 144.188 53.944C144.104 54.0467 143.978 54.098 143.81 54.098C143.632 54.098 143.497 54.0467 143.404 53.944C143.31 53.8413 143.264 53.6967 143.264 53.51V52.418H143.39C143.315 52.7727 143.17 53.076 142.956 53.328C142.75 53.58 142.494 53.776 142.186 53.916C141.878 54.056 141.532 54.126 141.15 54.126ZM148.251 54.098C148.065 54.098 147.925 54.0467 147.831 53.944C147.738 53.8413 147.691 53.6967 147.691 53.51V47.672C147.691 47.4853 147.738 47.3453 147.831 47.252C147.925 47.1493 148.06 47.098 148.237 47.098C148.415 47.098 148.55 47.1493 148.643 47.252C148.746 47.3453 148.797 47.4853 148.797 47.672V48.876L148.643 48.708C148.839 48.1667 149.157 47.7607 149.595 47.49C150.043 47.21 150.557 47.07 151.135 47.07C151.677 47.07 152.125 47.168 152.479 47.364C152.843 47.56 153.114 47.8587 153.291 48.26C153.469 48.652 153.557 49.1513 153.557 49.758V53.51C153.557 53.6967 153.506 53.8413 153.403 53.944C153.31 54.0467 153.175 54.098 152.997 54.098C152.811 54.098 152.666 54.0467 152.563 53.944C152.47 53.8413 152.423 53.6967 152.423 53.51V49.828C152.423 49.1933 152.297 48.7313 152.045 48.442C151.803 48.1433 151.411 47.994 150.869 47.994C150.244 47.994 149.745 48.19 149.371 48.582C149.007 48.9647 148.825 49.478 148.825 50.122V53.51C148.825 53.902 148.634 54.098 148.251 54.098ZM159.498 54.126C158.892 54.126 158.36 53.9813 157.902 53.692C157.454 53.4027 157.104 52.9967 156.852 52.474C156.61 51.942 156.488 51.3167 156.488 50.598C156.488 49.87 156.61 49.2447 156.852 48.722C157.104 48.19 157.454 47.784 157.902 47.504C158.36 47.2147 158.892 47.07 159.498 47.07C160.114 47.07 160.642 47.224 161.08 47.532C161.519 47.84 161.813 48.2553 161.962 48.778H161.808V44.606C161.808 44.4193 161.855 44.2793 161.948 44.186C162.051 44.0833 162.196 44.032 162.382 44.032C162.56 44.032 162.695 44.0833 162.788 44.186C162.891 44.2793 162.942 44.4193 162.942 44.606V53.51C162.942 53.6967 162.896 53.8413 162.802 53.944C162.709 54.0467 162.569 54.098 162.382 54.098C162.205 54.098 162.065 54.0467 161.962 53.944C161.869 53.8413 161.822 53.6967 161.822 53.51V52.18L161.976 52.376C161.827 52.908 161.528 53.3327 161.08 53.65C160.642 53.9673 160.114 54.126 159.498 54.126ZM159.736 53.216C160.156 53.216 160.525 53.1133 160.842 52.908C161.16 52.7027 161.402 52.404 161.57 52.012C161.748 51.62 161.836 51.1487 161.836 50.598C161.836 49.7487 161.645 49.1 161.262 48.652C160.889 48.204 160.38 47.98 159.736 47.98C159.307 47.98 158.934 48.0827 158.616 48.288C158.308 48.484 158.066 48.778 157.888 49.17C157.72 49.5527 157.636 50.0287 157.636 50.598C157.636 51.438 157.828 52.0867 158.21 52.544C158.593 52.992 159.102 53.216 159.736 53.216ZM175.624 54.126C174.653 54.126 173.823 53.9207 173.132 53.51C172.441 53.0993 171.909 52.516 171.536 51.76C171.172 51.004 170.99 50.1033 170.99 49.058C170.99 48.274 171.093 47.574 171.298 46.958C171.513 46.3327 171.816 45.8053 172.208 45.376C172.609 44.9373 173.099 44.6013 173.678 44.368C174.257 44.1253 174.905 44.004 175.624 44.004C176.203 44.004 176.753 44.088 177.276 44.256C177.799 44.4147 178.251 44.6527 178.634 44.97C178.755 45.0633 178.835 45.1707 178.872 45.292C178.919 45.404 178.923 45.516 178.886 45.628C178.858 45.7307 178.802 45.8193 178.718 45.894C178.643 45.9593 178.55 45.992 178.438 45.992C178.326 45.992 178.2 45.9453 178.06 45.852C177.724 45.5813 177.355 45.3807 176.954 45.25C176.553 45.1193 176.119 45.054 175.652 45.054C174.915 45.054 174.289 45.2127 173.776 45.53C173.263 45.838 172.875 46.2907 172.614 46.888C172.353 47.4853 172.222 48.2087 172.222 49.058C172.222 49.9073 172.353 50.6353 172.614 51.242C172.875 51.8393 173.263 52.2967 173.776 52.614C174.289 52.922 174.915 53.076 175.652 53.076C176.109 53.076 176.543 53.0107 176.954 52.88C177.365 52.74 177.743 52.5347 178.088 52.264C178.228 52.1707 178.354 52.1287 178.466 52.138C178.578 52.138 178.671 52.1707 178.746 52.236C178.821 52.3013 178.872 52.3853 178.9 52.488C178.937 52.5907 178.937 52.698 178.9 52.81C178.872 52.922 178.802 53.02 178.69 53.104C178.298 53.44 177.836 53.6967 177.304 53.874C176.781 54.042 176.221 54.126 175.624 54.126ZM184.216 54.126C183.553 54.126 182.979 53.9813 182.494 53.692C182.008 53.4027 181.63 52.9967 181.36 52.474C181.098 51.942 180.968 51.3167 180.968 50.598C180.968 50.0567 181.042 49.5713 181.192 49.142C181.341 48.7033 181.56 48.33 181.85 48.022C182.139 47.714 182.48 47.4807 182.872 47.322C183.273 47.154 183.721 47.07 184.216 47.07C184.878 47.07 185.452 47.2147 185.938 47.504C186.423 47.7933 186.796 48.204 187.058 48.736C187.328 49.2587 187.464 49.8793 187.464 50.598C187.464 51.1393 187.389 51.6247 187.24 52.054C187.09 52.4833 186.871 52.8567 186.582 53.174C186.292 53.482 185.947 53.72 185.546 53.888C185.154 54.0467 184.71 54.126 184.216 54.126ZM184.216 53.216C184.636 53.216 185.004 53.1133 185.322 52.908C185.639 52.7027 185.882 52.404 186.05 52.012C186.227 51.62 186.316 51.1487 186.316 50.598C186.316 49.7487 186.124 49.1 185.742 48.652C185.368 48.204 184.86 47.98 184.216 47.98C183.786 47.98 183.413 48.0827 183.096 48.288C182.788 48.484 182.545 48.778 182.368 49.17C182.2 49.5527 182.116 50.0287 182.116 50.598C182.116 51.438 182.307 52.0867 182.69 52.544C183.072 52.992 183.581 53.216 184.216 53.216ZM191.015 54.098C190.828 54.098 190.688 54.0467 190.595 53.944C190.502 53.8413 190.455 53.6967 190.455 53.51V47.672C190.455 47.4853 190.502 47.3453 190.595 47.252C190.688 47.1493 190.824 47.098 191.001 47.098C191.178 47.098 191.314 47.1493 191.407 47.252C191.51 47.3453 191.561 47.4853 191.561 47.672V48.904L191.407 48.708C191.584 48.1853 191.869 47.784 192.261 47.504C192.662 47.2147 193.138 47.07 193.689 47.07C194.268 47.07 194.734 47.21 195.089 47.49C195.453 47.7607 195.696 48.1853 195.817 48.764H195.607C195.775 48.2413 196.074 47.8307 196.503 47.532C196.942 47.224 197.45 47.07 198.029 47.07C198.542 47.07 198.962 47.168 199.289 47.364C199.625 47.56 199.877 47.8587 200.045 48.26C200.213 48.652 200.297 49.1513 200.297 49.758V53.51C200.297 53.6967 200.246 53.8413 200.143 53.944C200.05 54.0467 199.91 54.098 199.723 54.098C199.546 54.098 199.406 54.0467 199.303 53.944C199.21 53.8413 199.163 53.6967 199.163 53.51V49.814C199.163 49.1887 199.056 48.7313 198.841 48.442C198.626 48.1433 198.262 47.994 197.749 47.994C197.189 47.994 196.746 48.19 196.419 48.582C196.102 48.9647 195.943 49.4873 195.943 50.15V53.51C195.943 53.6967 195.892 53.8413 195.789 53.944C195.696 54.0467 195.556 54.098 195.369 54.098C195.192 54.098 195.052 54.0467 194.949 53.944C194.856 53.8413 194.809 53.6967 194.809 53.51V49.814C194.809 49.1887 194.697 48.7313 194.473 48.442C194.258 48.1433 193.899 47.994 193.395 47.994C192.835 47.994 192.392 48.19 192.065 48.582C191.748 48.9647 191.589 49.4873 191.589 50.15V53.51C191.589 53.902 191.398 54.098 191.015 54.098ZM204.265 54.098C204.078 54.098 203.938 54.0467 203.845 53.944C203.752 53.8413 203.705 53.6967 203.705 53.51V47.672C203.705 47.4853 203.752 47.3453 203.845 47.252C203.938 47.1493 204.074 47.098 204.251 47.098C204.428 47.098 204.564 47.1493 204.657 47.252C204.76 47.3453 204.811 47.4853 204.811 47.672V48.904L204.657 48.708C204.834 48.1853 205.119 47.784 205.511 47.504C205.912 47.2147 206.388 47.07 206.939 47.07C207.518 47.07 207.984 47.21 208.339 47.49C208.703 47.7607 208.946 48.1853 209.067 48.764H208.857C209.025 48.2413 209.324 47.8307 209.753 47.532C210.192 47.224 210.7 47.07 211.279 47.07C211.792 47.07 212.212 47.168 212.539 47.364C212.875 47.56 213.127 47.8587 213.295 48.26C213.463 48.652 213.547 49.1513 213.547 49.758V53.51C213.547 53.6967 213.496 53.8413 213.393 53.944C213.3 54.0467 213.16 54.098 212.973 54.098C212.796 54.098 212.656 54.0467 212.553 53.944C212.46 53.8413 212.413 53.6967 212.413 53.51V49.814C212.413 49.1887 212.306 48.7313 212.091 48.442C211.876 48.1433 211.512 47.994 210.999 47.994C210.439 47.994 209.996 48.19 209.669 48.582C209.352 48.9647 209.193 49.4873 209.193 50.15V53.51C209.193 53.6967 209.142 53.8413 209.039 53.944C208.946 54.0467 208.806 54.098 208.619 54.098C208.442 54.098 208.302 54.0467 208.199 53.944C208.106 53.8413 208.059 53.6967 208.059 53.51V49.814C208.059 49.1887 207.947 48.7313 207.723 48.442C207.508 48.1433 207.149 47.994 206.645 47.994C206.085 47.994 205.642 48.19 205.315 48.582C204.998 48.9647 204.839 49.4873 204.839 50.15V53.51C204.839 53.902 204.648 54.098 204.265 54.098ZM219.993 54.126C219.275 54.126 218.654 53.986 218.131 53.706C217.618 53.4167 217.217 53.0107 216.927 52.488C216.647 51.9653 216.507 51.34 216.507 50.612C216.507 49.9027 216.647 49.2867 216.927 48.764C217.207 48.232 217.59 47.8167 218.075 47.518C218.57 47.2193 219.139 47.07 219.783 47.07C220.241 47.07 220.651 47.1493 221.015 47.308C221.379 47.4573 221.687 47.6767 221.939 47.966C222.201 48.2553 222.397 48.6053 222.527 49.016C222.667 49.4267 222.737 49.8887 222.737 50.402C222.737 50.5513 222.695 50.6633 222.611 50.738C222.527 50.8033 222.406 50.836 222.247 50.836H217.375V50.094H221.981L221.757 50.276C221.757 49.772 221.683 49.3473 221.533 49.002C221.384 48.6473 221.165 48.3767 220.875 48.19C220.595 48.0033 220.241 47.91 219.811 47.91C219.335 47.91 218.929 48.022 218.593 48.246C218.267 48.4607 218.019 48.764 217.851 49.156C217.683 49.5387 217.599 49.9867 217.599 50.5V50.584C217.599 51.4427 217.805 52.096 218.215 52.544C218.635 52.992 219.228 53.216 219.993 53.216C220.311 53.216 220.623 53.174 220.931 53.09C221.249 53.006 221.557 52.866 221.855 52.67C221.986 52.586 222.103 52.5487 222.205 52.558C222.317 52.558 222.406 52.5907 222.471 52.656C222.537 52.712 222.579 52.7867 222.597 52.88C222.625 52.964 222.616 53.0573 222.569 53.16C222.532 53.2627 222.453 53.3513 222.331 53.426C222.023 53.65 221.659 53.8227 221.239 53.944C220.819 54.0653 220.404 54.126 219.993 54.126ZM226.213 54.098C226.026 54.098 225.881 54.0467 225.779 53.944C225.685 53.8413 225.639 53.6967 225.639 53.51V47.672C225.639 47.4853 225.685 47.3453 225.779 47.252C225.872 47.1493 226.007 47.098 226.185 47.098C226.362 47.098 226.497 47.1493 226.591 47.252C226.693 47.3453 226.745 47.4853 226.745 47.672V48.806H226.605C226.754 48.2553 227.039 47.8307 227.459 47.532C227.879 47.2333 228.397 47.0747 229.013 47.056C229.153 47.0467 229.265 47.0793 229.349 47.154C229.433 47.2193 229.479 47.336 229.489 47.504C229.498 47.6627 229.461 47.7887 229.377 47.882C229.293 47.9753 229.162 48.0313 228.985 48.05L228.761 48.078C228.126 48.134 227.636 48.3393 227.291 48.694C226.955 49.0393 226.787 49.5153 226.787 50.122V53.51C226.787 53.6967 226.735 53.8413 226.633 53.944C226.539 54.0467 226.399 54.098 226.213 54.098ZM234.718 54.126C234.037 54.126 233.449 53.9767 232.954 53.678C232.459 53.3793 232.077 52.964 231.806 52.432C231.545 51.8907 231.414 51.2653 231.414 50.556C231.414 50.0147 231.489 49.5293 231.638 49.1C231.787 48.6707 232.007 48.3067 232.296 48.008C232.585 47.7 232.931 47.4667 233.332 47.308C233.743 47.1493 234.205 47.07 234.718 47.07C235.054 47.07 235.404 47.1213 235.768 47.224C236.132 47.3267 236.463 47.504 236.762 47.756C236.855 47.8213 236.916 47.9007 236.944 47.994C236.972 48.0873 236.972 48.1807 236.944 48.274C236.916 48.358 236.869 48.4327 236.804 48.498C236.739 48.554 236.655 48.5867 236.552 48.596C236.459 48.6053 236.361 48.5727 236.258 48.498C236.015 48.3113 235.768 48.1807 235.516 48.106C235.264 48.0313 235.021 47.994 234.788 47.994C234.424 47.994 234.107 48.0547 233.836 48.176C233.565 48.288 233.337 48.4513 233.15 48.666C232.963 48.8807 232.819 49.1467 232.716 49.464C232.623 49.7813 232.576 50.15 232.576 50.57C232.576 51.382 232.767 52.026 233.15 52.502C233.533 52.9687 234.079 53.202 234.788 53.202C235.021 53.202 235.259 53.1647 235.502 53.09C235.754 53.0153 236.006 52.8847 236.258 52.698C236.361 52.6233 236.459 52.5907 236.552 52.6C236.645 52.6093 236.725 52.6467 236.79 52.712C236.855 52.768 236.897 52.8427 236.916 52.936C236.944 53.0293 236.944 53.1227 236.916 53.216C236.888 53.3 236.827 53.3747 236.734 53.44C236.435 53.6827 236.109 53.86 235.754 53.972C235.399 54.0747 235.054 54.126 234.718 54.126ZM240.135 54.07C239.948 54.07 239.808 54.0187 239.715 53.916C239.621 53.804 239.575 53.65 239.575 53.454V47.728C239.575 47.532 239.621 47.3827 239.715 47.28C239.808 47.1773 239.948 47.126 240.135 47.126C240.312 47.126 240.452 47.1773 240.555 47.28C240.657 47.3827 240.709 47.532 240.709 47.728V53.454C240.709 53.65 240.657 53.804 240.555 53.916C240.461 54.0187 240.321 54.07 240.135 54.07ZM240.135 45.558C239.901 45.558 239.719 45.4973 239.589 45.376C239.458 45.2453 239.393 45.0727 239.393 44.858C239.393 44.634 239.458 44.466 239.589 44.354C239.719 44.2327 239.901 44.172 240.135 44.172C240.377 44.172 240.559 44.2327 240.681 44.354C240.811 44.466 240.877 44.634 240.877 44.858C240.877 45.0727 240.811 45.2453 240.681 45.376C240.559 45.4973 240.377 45.558 240.135 45.558ZM246.23 54.126C245.764 54.126 245.344 54.0373 244.97 53.86C244.606 53.6733 244.317 53.4213 244.102 53.104C243.888 52.7867 243.78 52.432 243.78 52.04C243.78 51.536 243.906 51.1393 244.158 50.85C244.42 50.5607 244.844 50.3553 245.432 50.234C246.03 50.1127 246.842 50.052 247.868 50.052H248.498V50.794H247.882C247.126 50.794 246.529 50.8313 246.09 50.906C245.661 50.9713 245.358 51.088 245.18 51.256C245.012 51.424 244.928 51.662 244.928 51.97C244.928 52.3527 245.059 52.6653 245.32 52.908C245.591 53.1507 245.955 53.272 246.412 53.272C246.786 53.272 247.112 53.1833 247.392 53.006C247.682 52.8287 247.906 52.586 248.064 52.278C248.232 51.97 248.316 51.6153 248.316 51.214V49.618C248.316 49.0393 248.2 48.624 247.966 48.372C247.733 48.1107 247.35 47.98 246.818 47.98C246.492 47.98 246.165 48.022 245.838 48.106C245.512 48.19 245.166 48.3253 244.802 48.512C244.672 48.5773 244.56 48.6007 244.466 48.582C244.373 48.554 244.298 48.5027 244.242 48.428C244.186 48.3533 244.154 48.2693 244.144 48.176C244.135 48.0733 244.154 47.9753 244.2 47.882C244.256 47.7887 244.34 47.714 244.452 47.658C244.863 47.4527 245.269 47.3033 245.67 47.21C246.072 47.1167 246.454 47.07 246.818 47.07C247.406 47.07 247.892 47.168 248.274 47.364C248.657 47.5507 248.942 47.84 249.128 48.232C249.315 48.6147 249.408 49.1093 249.408 49.716V53.51C249.408 53.6967 249.362 53.8413 249.268 53.944C249.184 54.0467 249.058 54.098 248.89 54.098C248.713 54.098 248.578 54.0467 248.484 53.944C248.391 53.8413 248.344 53.6967 248.344 53.51V52.418H248.47C248.396 52.7727 248.251 53.076 248.036 53.328C247.831 53.58 247.574 53.776 247.266 53.916C246.958 54.056 246.613 54.126 246.23 54.126ZM254.844 54.126C254.172 54.126 253.659 53.9207 253.304 53.51C252.95 53.0993 252.772 52.5113 252.772 51.746V44.606C252.772 44.4193 252.819 44.2793 252.912 44.186C253.006 44.0833 253.146 44.032 253.332 44.032C253.51 44.032 253.65 44.0833 253.752 44.186C253.855 44.2793 253.906 44.4193 253.906 44.606V51.662C253.906 52.166 254.004 52.544 254.2 52.796C254.406 53.0387 254.704 53.16 255.096 53.16C255.18 53.16 255.255 53.1553 255.32 53.146C255.386 53.1367 255.451 53.132 255.516 53.132C255.619 53.1227 255.689 53.146 255.726 53.202C255.773 53.258 255.796 53.37 255.796 53.538C255.796 53.706 255.759 53.832 255.684 53.916C255.61 54 255.488 54.056 255.32 54.084C255.246 54.0933 255.166 54.1027 255.082 54.112C254.998 54.1213 254.919 54.126 254.844 54.126Z" fill="#8D9297"/>
<path d="M253.498 37H248.692C248.174 37 247.691 36.7526 247.404 36.3403L230.321 11.8391C230.075 11.4863 230.339 11.0145 230.782 11.0145H235.535C236.024 11.0145 236.482 11.2483 236.754 11.6385L253.914 36.2528C254.137 36.5724 253.899 37 253.498 37ZM230.607 36.7586C230.085 36.7586 229.807 36.1686 230.153 35.7937L252.882 11.1955C252.997 11.0714 253.162 11 253.335 11C253.858 11 254.136 11.59 253.789 11.9649L231.062 36.5631C230.947 36.6872 230.781 36.7586 230.607 36.7586Z" fill="#46344E"/>
<path d="M11.2886 5.63987C11.2886 6.38051 11.4345 7.1139 11.7179 7.79816C12.0013 8.48242 12.4168 9.10416 12.9405 9.62787C13.4642 10.1516 14.0859 10.567 14.7702 10.8504C15.4545 11.1339 16.1878 11.2797 16.9285 11.2797C17.6691 11.2797 18.4025 11.1339 19.0868 10.8504C19.771 10.567 20.3928 10.1516 20.9165 9.62787C21.4402 9.10416 21.8556 8.48242 22.139 7.79816C22.4225 7.1139 22.5684 6.38051 22.5684 5.63987C22.5684 4.14409 21.9742 2.70956 20.9165 1.65188C19.8588 0.5942 18.4243 0 16.9285 0C15.4327 0 13.9982 0.5942 12.9405 1.65188C11.8828 2.70956 11.2886 4.14409 11.2886 5.63987Z" fill="#8D9297"/>
<path fill-rule="evenodd" clip-rule="evenodd" d="M37.7944 16.1945C37.557 16.1405 37.3143 16.1135 37.0709 16.1139H22.5683V35.4506H11.2886V16.1139H9.6772C7.25142 16.1117 4.91345 17.0215 3.12714 18.6626C1.34083 20.3038 0.236723 22.5565 0.0338802 24.9738C-0.168963 27.3911 0.544281 29.7963 2.0321 31.7122C3.51991 33.6282 5.67358 34.9148 8.0658 35.3169V54.7874C8.0658 55.6421 8.40535 56.4618 9.00974 57.0662C9.61413 57.6706 10.4339 58.0101 11.2886 58.0101C12.1433 58.0101 12.9631 57.6706 13.5674 57.0662C14.1718 56.4618 14.5114 55.6421 14.5114 54.7874V40.2848H19.3456V54.7874C19.3456 55.6421 19.6851 56.4618 20.2895 57.0662C20.8939 57.6706 21.7136 58.0101 22.5683 58.0101C23.4231 58.0101 24.2428 57.6706 24.8472 57.0662C25.4516 56.4618 25.7911 55.6421 25.7911 54.7874V22.5595H37.0709C37.8395 22.5595 38.5437 22.292 39.098 21.8424L42.3176 35.789C40.6519 36.1735 39.2072 37.2038 38.3012 38.6535C37.3952 40.1031 37.1022 41.8532 37.4866 43.5189L39.1786 58.0118L43.7292 56.9611L42.0694 49.0427L45.2245 48.3821L46.8698 56.236L58.0206 53.6626L53.188 39.8949C52.8036 38.2292 51.7732 36.7845 50.3236 35.8785C48.874 34.9725 47.1238 34.6795 45.4582 35.0639L39.2946 8.3728C39.1984 7.95612 38.9407 7.5947 38.5781 7.36806C38.2154 7.14141 37.7776 7.0681 37.3609 7.16426C36.9442 7.26042 36.5828 7.51816 36.3562 7.8808C36.1295 8.24343 36.0562 8.68125 36.1524 9.09793L37.7944 16.1945ZM4.84302 25.7823C4.84302 24.9276 5.18256 24.1078 5.78695 23.5034C6.39134 22.899 7.21107 22.5595 8.0658 22.5595V29.0051C7.21107 29.0051 6.39134 28.6655 5.78695 28.0611C5.18256 27.4568 4.84302 26.637 4.84302 25.7823ZM46.1833 38.2045L43.0411 38.9296C42.2087 39.1222 41.4869 39.6374 41.0343 40.362C40.5816 41.0866 40.4352 41.9613 40.6272 42.7938L50.0474 40.6184C49.8548 39.786 49.3396 39.0642 48.615 38.6116C47.8905 38.1589 47.0158 38.0125 46.1833 38.2045Z" fill="#46344E"/>
<path d="M19.3456 16.1139V20.9481H14.5114V16.1139H19.3456Z" fill="#8D9297"/>
</svg>
