<?xml version="1.0" standalone="no"?>
<!DOCTYPE svg PUBLIC "-//W3C//DTD SVG 20010904//EN"
 "http://www.w3.org/TR/2001/REC-SVG-20010904/DTD/svg10.dtd">
<svg version="1.0" xmlns="http://www.w3.org/2000/svg"
 width="157.000000pt" height="157.000000pt" viewBox="0 0 157.000000 157.000000"
 preserveAspectRatio="xMidYMid meet">
<metadata>
Created by potrace 1.14, written by Peter Selinger 2001-2017
</metadata>
<g transform="translate(0.000000,157.000000) scale(0.100000,-0.100000)"
fill="#000000" stroke="none">
<path d="M755 1500 c-11 -5 -117 -73 -235 -152 -118 -79 -279 -185 -358 -237
-130 -85 -143 -96 -140 -120 5 -41 39 -39 105 7 57 39 532 352 605 398 21 13
44 24 53 24 14 0 126 -72 553 -354 171 -113 204 -125 210 -76 3 27 36 4 -393
287 -377 249 -361 240 -400 223z"/>
<path d="M485 1204 c-154 -102 -290 -194 -302 -205 l-23 -19 0 -454 c0 -400 2
-456 16 -470 20 -20 48 -20 68 0 14 13 16 67 16 434 0 230 3 426 6 435 4 9 51
46 106 81 54 36 166 109 249 164 91 60 157 97 168 95 14 -3 425 -268 506 -327
6 -5 10 -164 11 -430 1 -233 2 -426 3 -430 2 -13 33 -38 47 -38 8 0 23 9 34
20 19 19 20 33 20 468 l0 449 -22 20 c-32 30 -553 372 -584 383 -14 6 -28 10
-32 10 -4 0 -133 -84 -287 -186z"/>
<path d="M834 1055 c-3 -7 4 -32 16 -55 25 -48 21 -70 -13 -70 -17 0 -28 10
-40 35 -18 39 -42 54 -59 37 -14 -14 -12 -96 2 -123 15 -27 69 -59 102 -59 23
0 38 -19 134 -172 58 -95 116 -181 126 -190 32 -28 92 -24 117 8 43 55 33 76
-119 255 -134 157 -139 165 -134 200 10 60 -32 121 -95 139 -24 7 -33 6 -37
-5z m90 -140 c-5 -36 -2 -46 22 -76 16 -19 31 -36 34 -39 3 -3 30 -34 60 -70
30 -36 60 -70 65 -76 6 -6 22 -25 38 -43 l27 -31 -25 0 c-16 0 -29 -9 -37 -24
-13 -23 -17 -18 -112 135 -54 88 -104 163 -110 166 -6 4 -22 6 -36 5 -27 -3
-80 31 -80 51 0 7 8 2 18 -10 15 -20 21 -22 53 -13 19 6 46 21 58 34 19 20 21
28 11 48 -11 22 -11 22 5 3 11 -14 14 -31 9 -60z m264 -426 c-7 -5 -24 -8 -38
-8 -22 1 -22 2 5 8 22 4 31 13 34 31 l5 25 4 -24 c2 -13 -2 -28 -10 -32z"/>
<path d="M423 773 c-21 -8 -15 -37 28 -145 23 -57 43 -108 46 -115 3 -7 -10
-18 -29 -26 -53 -22 -68 -64 -65 -178 5 -144 51 -229 126 -229 85 0 391 110
405 146 4 10 -29 51 -93 117 -54 56 -115 120 -134 142 -33 37 -40 40 -88 41
l-52 0 -44 115 c-55 141 -61 148 -100 132z m221 -326 c18 -13 2 -20 -156 -63
-12 -4 -15 0 -11 16 4 13 19 23 47 30 22 6 52 15 66 20 34 12 34 12 54 -3z
m127 -138 c33 -34 59 -62 57 -63 -2 -1 -15 -7 -30 -14 -26 -11 -30 -8 -71 39
-30 34 -51 50 -63 47 -30 -5 -29 -50 2 -87 22 -27 25 -34 13 -42 -26 -16 -39
-9 -70 41 -32 52 -65 72 -80 49 -14 -23 -10 -44 15 -82 24 -35 24 -36 5 -42
-29 -9 -47 10 -64 68 -21 72 -20 84 13 90 15 3 65 16 112 30 47 13 89 25 93
26 4 0 35 -26 68 -60z"/>
<path d="M762 718 c-12 -18 -31 -39 -43 -46 l-22 -14 25 -21 c14 -12 33 -35
43 -50 l18 -28 17 29 c10 16 29 37 42 48 l25 19 -24 19 c-14 10 -33 31 -43 48
l-18 29 -20 -33z"/>
<path d="M863 542 l-20 -28 21 -27 22 -27 26 31 c21 23 24 31 13 35 -8 3 -17
14 -20 25 -9 26 -18 24 -42 -9z"/>
</g>
</svg>
